<svg width="1061" height="844" viewBox="0 0 1061 844" fill="none" xmlns="http://www.w3.org/2000/svg">
<rect width="1061" height="844" fill="white"/>
<ellipse cx="553.5" cy="177" rx="98.5" ry="68" fill="#EEEFB6"/>
<ellipse cx="504.5" cy="147" rx="9.5" ry="10" fill="#997070"/>
<ellipse cx="589" cy="150" rx="9" ry="7" fill="#8D5C5C"/>
<path d="M554 177L566.99 198H541.01L554 177Z" fill="#734444"/>
<path d="M552 245L638.603 472.25H465.397L552 245Z" fill="#DB3232"/>
<line x1="552.157" y1="245.475" x2="368.157" y2="306.475" stroke="black"/>
<path d="M363 292L370.409 305.129H394.385L374.988 313.243L382.397 326.371L363 318.257L343.603 326.371L351.012 313.243L331.615 305.129H355.591L363 292Z" fill="#9E6464"/>
<line x1="554.163" y1="244.527" x2="731.163" y2="305.527" stroke="black"/>
<path d="M750 292L756.96 306.165H779.483L761.261 314.92L768.221 329.085L750 320.33L731.779 329.085L738.739 314.92L720.517 306.165H743.04L750 292Z" fill="#9C6666"/>
<line x1="505.5" y1="469.992" x2="508.5" y2="656.992" stroke="black"/>
<line x1="596.5" y1="469.995" x2="598.5" y2="656.995" stroke="black"/>
<line x1="508" y1="657.5" x2="421" y2="657.5" stroke="black"/>
<path d="M401 637L407.735 654.966H429.532L411.898 666.069L418.634 684.034L401 672.931L383.366 684.034L390.102 666.069L372.468 654.966H394.265L401 637Z" fill="#A46464"/>
<line x1="600" y1="656.5" x2="674" y2="656.5" stroke="black"/>
<path d="M688.5 625L695.348 647.111H717.507L699.58 660.777L706.427 682.889L688.5 669.223L670.573 682.889L677.42 660.777L659.493 647.111H681.652L688.5 625Z" fill="#9C6D6D"/>
<path d="M546.5 0L567.718 110.25H525.282L546.5 0Z" fill="#5E4E4E"/>
</svg>
